<svg id="Layer_1" data-name="Layer 1" xmlns="http://www.w3.org/2000/svg" viewBox="0 0 141.34 153.24"><defs><style>.cls-1{fill:none;stroke:#222;stroke-miterlimit:10;stroke-width:4px;}</style></defs><title>binary-search</title><line class="cls-1" x1="23.65" y1="30.69" x2="23.65" y2="50.69"/><line class="cls-1" x1="55" y1="30.69" x2="55" y2="50.69"/><rect class="cls-1" x="33.68" y="30.69" width="11.28" height="19.99" rx="2.82"/><line class="cls-1" x1="86.34" y1="30.69" x2="86.34" y2="50.69"/><rect class="cls-1" x="65.03" y="30.69" width="11.28" height="19.99" rx="2.82"/><line class="cls-1" x1="117.69" y1="30.69" x2="117.69" y2="50.69"/><rect class="cls-1" x="96.37" y="30.69" width="11.28" height="19.99" rx="2.82"/><rect class="cls-1" x="18.01" y="59.39" width="11.28" height="19.99" rx="2.82"/><rect class="cls-1" x="112.8" y="59.39" width="11.28" height="19.99" rx="2.82"/><line class="cls-1" x1="23.65" y1="88.08" x2="23.65" y2="108.07"/><line class="cls-1" x1="49.37" y1="76.79" x2="49.37" y2="103.97"/><line class="cls-1" x1="91.97" y1="76.79" x2="91.97" y2="103.97"/><rect class="cls-1" x="63" y="76.79" width="15.34" height="27.18" rx="2.82"/><line class="cls-1" x1="39.32" y1="2" x2="39.32" y2="21.99"/><rect class="cls-1" x="18.01" y="2" width="11.28" height="19.99" rx="2.82"/><rect class="cls-1" x="49.35" y="2" width="11.28" height="19.99" rx="2.82"/><line class="cls-1" x1="70.67" y1="2" x2="70.67" y2="21.99"/><rect class="cls-1" x="80.7" y="2" width="11.28" height="19.99" rx="2.82"/><line class="cls-1" x1="102.77" y1="2" x2="102.77" y2="21.99"/><rect class="cls-1" x="112.8" y="2" width="11.28" height="19.99" rx="2.82"/><rect class="cls-1" x="128.05" y="30.69" width="11.28" height="19.99" rx="2.82"/><line class="cls-1" x1="134.45" y1="59.39" x2="134.45" y2="79.38"/><rect class="cls-1" x="128.05" y="88.08" width="11.28" height="19.99" rx="2.82"/><line class="cls-1" x1="134.45" y1="2" x2="134.45" y2="21.99"/><rect class="cls-1" x="2" y="30.69" width="11.28" height="19.99" rx="2.82"/><line class="cls-1" x1="7.64" y1="59.39" x2="7.64" y2="79.38"/><rect class="cls-1" x="2" y="88.08" width="11.28" height="19.99" rx="2.82"/><line class="cls-1" x1="7.64" y1="2" x2="7.64" y2="21.99"/><circle class="cls-1" cx="682.58" cy="398.87" r="33.21" transform="translate(-694.32 291.77) rotate(-45)"/><line class="cls-1" x1="49.82" y1="117.22" x2="22.37" y2="152"/><line class="cls-1" x1="118.44" y1="88.08" x2="118.44" y2="108.07"/></svg>