<svg id="Layer_1" data-name="Layer 1" xmlns="http://www.w3.org/2000/svg" viewBox="0 0 154 144.08"><defs><style>.cls-1,.cls-2{fill:none;stroke:#222;stroke-miterlimit:10;stroke-width:4px;}.cls-2{stroke-dasharray:5 5;}</style></defs><title>cloud-digital-transformation</title><path class="cls-1" d="M725.52,335.65A30.94,30.94,0,0,0,713,338.3c-6.71-14.34-20.48-24.18-36.39-24.18-21,0-38.25,17.11-40.51,39.09a24,24,0,0,0-3.51-.29c-13.51,0-24.46,11.59-24.46,25.89s11,25.89,24.46,25.89h92.93A31.41,31.41,0,0,0,746,397a35.26,35.26,0,0,0,12.12-26.85C758.13,351.11,743.53,335.65,725.52,335.65Z" transform="translate(-606.13 -312.12)"/><circle class="cls-1" cx="694.81" cy="349.99" r="9.48" transform="translate(-368.39 667.42) rotate(-80.75)"/><path class="cls-1" d="M733.46,368a9.48,9.48,0,1,1-9.48-9.49A9.48,9.48,0,0,1,733.46,368Z" transform="translate(-606.13 -312.12)"/><circle class="cls-1" cx="57.73" cy="50.04" r="9.48"/><circle class="cls-1" cx="36.15" cy="68.53" r="9.48"/><line class="cls-2" x1="95.88" y1="95.65" x2="95.88" y2="144.08"/><line class="cls-2" x1="80.47" y1="95.65" x2="80.47" y2="144.08"/><line class="cls-2" x1="65.06" y1="95.65" x2="65.06" y2="144.08"/><line class="cls-2" x1="49.65" y1="95.65" x2="49.65" y2="144.08"/><polyline class="cls-1" points="110.38 61.67 95.88 72.97 95.88 92.57"/><polyline class="cls-1" points="84.92 46.57 80.47 60.95 80.47 92.57"/><polyline class="cls-1" points="61.22 58.84 65.06 68.53 65.06 92.57"/><polyline class="cls-1" points="43.25 74.81 49.65 80.47 49.65 92.57"/></svg>