<?xml version="1.0" ?><!DOCTYPE svg  PUBLIC '-//W3C//DTD SVG 1.1//EN'  'http://www.w3.org/Graphics/SVG/1.1/DTD/svg11.dtd'><svg enable-background="new 0 0 512 512" id="Layer_1" version="1.1" viewBox="0 0 512 512" xml:space="preserve" xmlns="http://www.w3.org/2000/svg" xmlns:xlink="http://www.w3.org/1999/xlink"><g><path d="M136.7,219.5l0.8-2.3c8.9-22.3,26.6-43.5,36.1-53.8l6.3-6.6c10.1-11.1,16.2-25.8,16.2-42c0-33.2-25.9-60.4-58.5-62.4   c-0.3,0-0.5-0.1-0.8-0.1l-0.8,0.1c-32.7,2-58.5,29.2-58.5,62.4c0,16.2,6.1,30.9,16.1,42l6.3,6.6c9.4,10.4,27.2,31.6,36.1,54   C136.2,218,136.5,218.8,136.7,219.5z M107.7,117.6c0-15.7,12.7-28.4,28.4-28.4c15.7,0,28.4,12.7,28.4,28.4   c0,15.7-12.7,28.4-28.4,28.4C120.4,145.9,107.7,133.2,107.7,117.6z"/><path d="M399.1,418.2H180.5c-5.1,0-9.7-2.1-12.6-5.7c-9-11.5-19-29.4-0.9-52.4c2.9-3.6,7.6-5.8,12.7-5.8h181.7   c13,0,25.5-4.3,35.3-12c41.1-32.2,40.3-67.8,36.2-86.2c-7.7-34.5-37.2-61.3-54.9-65.4c-4.6-1.1-15.3-3.5-146.4-1.7l-0.7-42   l-61.8,63.8l63.8,61.9l-0.7-42.3l0-0.1c109.9-1.5,132,0.1,136,0.6c5.6,2.9,22.5,18.5,25,37.5c1.9,14.7-5.3,28.1-22,41.3   c-2.6,2-6,3.1-9.7,3.1H179.6c-17.9,0-34.4,7.9-45.2,21.6c-25.7,32.6-25.3,70.3,0.9,103.6c10.6,13.5,27.4,21.5,45.1,21.5h218.7   c11.4,0,20.7-9.3,20.7-20.7C419.8,427.5,410.6,418.2,399.1,418.2z"/></g></svg>