<svg id="Layer_1" data-name="Layer 1" xmlns="http://www.w3.org/2000/svg" viewBox="0 0 163.44 257.74"><defs><style>.cls-1{fill:#00945e;}.cls-1,.cls-2{fill-rule:evenodd;}.cls-2{fill:#75cbab;}</style></defs><title>mint-leaf</title><path class="cls-1" d="M646.76,152c10,10.37,8.5,35.53,22.22,41.79,3.74,1.94,6.76-1,11.77-1.25.21,5.76,2.13,15.46,3.52,24.85.05,5.49,8.22,3.37,8.25,5.62-1.59,8.09-3.69,17.06-5.22,25.12-.71,5.63,5.87,3,6.85,5.45,2.11,8.2-8.24,21-10.62,30.08.23,6.07,5.93,2.88,8.5,5q-4.59,9.79-9.15,19.6c-3.81,6.42,2.86,5,4.31,7.55q-11.9,11.7-23.81,23.35c-5.1,5.1,2.46,6.43,6.06,10.46-14.6,10-30,15.37-43.85,20.86-9.19,3.59-25.12,4.1-32.2,10.39-10.32,9.21,5.16,19.52,0,25.91-3.09,2.73-3.7,3.09-8.57,2.91-21.91,1.15-5.64-28.71-12.1-37.21-10.32-13.56-26.84-25.26-33.17-39.72-4.42-10.17-10.2-25.76-8.16-36.75,2.47-9.34,8.75-3,9.58-12.53-.17-6.69-.28-13.38-.39-20.06,2.77-14.14,10.52-2.41,12.78-13.35,1.48-7.13,0-15,4.65-24.23,5.53-.56,7.31-1,10.37-6.25,2-8,3.89-12.89,7.57-19.22,9.84,5.27,12.57-16.93,22.2-23.17,3.6.31,6.94,7,12.59,2.75C619.3,168.79,633.72,156.65,646.76,152Z" transform="translate(-531 -152)"/><path class="cls-2" d="M574.26,379.53a80.85,80.85,0,0,0,4.24-13.45c2.38-11.74,2-23.36,6.84-34.39,5.86-13.28,9.49-21.27,9.46-35.84-.09-27.38,20.81-47.72,29.73-72.52,4.61-12.81,3.38-25.74,6.84-38.86,1.9-7.2,4.73-12.65,8.11-19.62,1.64-3.31,3.29-7.8,5.31-11.88-12.51,5.1-25.95,16.4-34,27-5.65,4.25-9-2.44-12.59-2.75-9.63,6.24-12.36,28.44-22.2,23.17-3.68,6.33-5.53,11.2-7.57,19.22-3.06,5.27-4.84,5.69-10.37,6.25-4.65,9.19-3.17,17.1-4.65,24.23-2.26,10.94-10-.79-12.78,13.35.11,6.68.22,13.37.39,20.06-.83,9.57-7.11,3.19-9.58,12.53-2,11,3.74,26.58,8.16,36.75,6.33,14.46,22.85,26.16,33.17,39.72C574,374.12,574.28,376.69,574.26,379.53Z" transform="translate(-531 -152)"/></svg>