<svg id="Layer_1" data-name="Layer 1" xmlns="http://www.w3.org/2000/svg" viewBox="0 0 135.31 28.84"><defs><style>.cls-1,.cls-3{fill:#00945e;}.cls-1,.cls-2{fill-rule:evenodd;}.cls-2{fill:#75cbab;}.cls-4{fill:#888b8d;}</style></defs><title>mint-social-logo</title><path class="cls-1" d="M627.84,370.12c.43.57.37,2,1,2.3.16.11.29-.05.51-.07,0,.32.09.86.15,1.37,0,.31.35.19.35.31-.06.45-.15.94-.22,1.39s.25.16.29.3c.1.45-.35,1.15-.45,1.66,0,.33.25.15.36.27l-.39,1.08c-.16.36.12.28.19.42l-1,1.28c-.22.29.11.36.26.58a8.26,8.26,0,0,1-1.89,1.15c-.39.2-1.08.23-1.38.57-.45.51.22,1.08,0,1.43-.14.15-.16.17-.37.16-.95.06-.24-1.58-.52-2.05a12.84,12.84,0,0,1-1.43-2.19,5,5,0,0,1-.35-2c.1-.52.37-.17.41-.69s0-.74,0-1.11c.12-.78.46-.13.55-.74a5.44,5.44,0,0,1,.2-1.33c.24,0,.32-.05.45-.34a4.13,4.13,0,0,1,.33-1.06c.42.29.54-.94,1-1.28.16,0,.3.38.54.15A4.15,4.15,0,0,1,627.84,370.12Z" transform="translate(-615.14 -370.12)"/><path class="cls-2" d="M624.72,382.66a5.71,5.71,0,0,0,.18-.74,11.76,11.76,0,0,1,.3-1.9,5.26,5.26,0,0,0,.41-2c0-1.51.89-2.63,1.28-4,.2-.71.14-1.42.29-2.14a5.92,5.92,0,0,1,.35-1.08c.07-.18.14-.43.23-.66a4.28,4.28,0,0,0-1.47,1.49c-.24.23-.38-.13-.54-.15-.41.34-.53,1.57-1,1.28a4.13,4.13,0,0,0-.33,1.06c-.13.29-.21.31-.45.34a5.44,5.44,0,0,0-.2,1.33c-.09.61-.43,0-.55.74,0,.37,0,.74,0,1.11s-.31.17-.41.69a5,5,0,0,0,.35,2,12.84,12.84,0,0,0,1.43,2.19A.86.86,0,0,1,624.72,382.66Z" transform="translate(-615.14 -370.12)"/><path class="cls-3" d="M637.46,379.68v19.1h-3.63V388.37c0-.83,0-1.77.07-2.83l.07-1.43.07-1.41h-.11L633.5,384l-.42,1.33c-.39,1.19-.7,2.08-.91,2.64L628,398.78h-3.3l-4.23-10.69c-.24-.59-.55-1.47-.93-2.65l-.43-1.33-.43-1.31h-.12l.07,1.39.07,1.39c.06,1.09.09,2,.09,2.79v10.41h-3.63v-19.1h5.91l3.41,8.84c.23.62.54,1.5.92,2.65l.42,1.32.43,1.32h.13l.4-1.32.42-1.31c.34-1.11.64-2,.89-2.63l3.36-8.87Z" transform="translate(-615.14 -370.12)"/><path class="cls-3" d="M644.45,379.68v19.1h-3.63v-19.1Z" transform="translate(-615.14 -370.12)"/><path class="cls-3" d="M665.55,379.68v19.1h-6.14L654,388.3c-.27-.52-.7-1.44-1.27-2.74l-.62-1.37-.6-1.38h-.14l.06,1.26,0,1.25,0,2.5v11h-3.63v-19.1H654l5,9.68q.66,1.29,1.53,3.12l.72,1.55.73,1.57H662l0-1.23,0-1.23,0-2.46v-11Z" transform="translate(-615.14 -370.12)"/><path class="cls-3" d="M676.5,382.93v15.85h-3.62V382.93h-5.5v-3.25h14.84v3.25Z" transform="translate(-615.14 -370.12)"/><path class="cls-4" d="M697.28,384.84h-2.14c0-1.53-.25-2.5-.77-2.91s-1.72-.62-3.62-.62c-2.26,0-3.72.2-4.37.59s-1,1.28-1,2.65c0,1.54.26,2.48.77,2.81s2,.56,4.58.69c3,.13,4.88.5,5.69,1.13s1.21,2,1.21,4.19c0,2.35-.47,3.87-1.4,4.56s-3,1-6.15,1c-2.76,0-4.59-.34-5.5-1s-1.36-2.09-1.36-4.2l0-.85h2.14v.48c0,1.7.26,2.76.79,3.18s1.86.62,4,.62c2.47,0,4-.21,4.56-.62s.86-1.52.86-3.32a3.34,3.34,0,0,0-.59-2.33,3.9,3.9,0,0,0-2.43-.7l-2.24-.11L688.2,390q-4.86-.33-4.86-5c0-2.17.47-3.62,1.41-4.34s2.82-1.09,5.64-1.09,4.72.33,5.59,1S697.28,382.62,697.28,384.84Z" transform="translate(-615.14 -370.12)"/><path class="cls-4" d="M705.64,385.21q3.71,0,4.81,1.29t1.1,5.59q0,4.31-1.1,5.59c-.74.86-2.34,1.28-4.81,1.28s-4.06-.42-4.8-1.28-1.1-2.72-1.1-5.59.37-4.73,1.1-5.59S703.18,385.21,705.64,385.21Zm0,1.63c-1.73,0-2.8.28-3.22.84s-.62,2-.62,4.41.21,3.84.62,4.4,1.49.85,3.22.85,2.82-.28,3.23-.85.62-2,.62-4.4-.21-3.84-.62-4.41S707.38,386.84,705.64,386.84Z" transform="translate(-615.14 -370.12)"/><path class="cls-4" d="M723.8,394h2v.73q0,4.28-5.61,4.27-3.6,0-4.76-1.35c-.77-.9-1.16-2.77-1.16-5.59,0-2.65.39-4.44,1.18-5.39s2.29-1.42,4.49-1.42,3.66.32,4.45,1,1.19,1.84,1.19,3.61h-2v-.35a2.33,2.33,0,0,0-.76-2.07,6,6,0,0,0-3.06-.52c-1.47,0-2.41.33-2.83,1s-.63,2.11-.63,4.38.24,3.63.72,4.23,1.6.91,3.36.91c1.49,0,2.43-.2,2.83-.59S723.8,395.43,723.8,394Z" transform="translate(-615.14 -370.12)"/><path class="cls-4" d="M730.46,379.68v2.19h-2v-2.19Zm0,5.72v13.38h-2V385.4Z" transform="translate(-615.14 -370.12)"/><path class="cls-4" d="M735.93,389.15H734c0-1.55.35-2.6,1.06-3.13s2.08-.81,4.14-.81c2.23,0,3.74.33,4.52,1s1.18,1.9,1.18,3.75v8.83h-2l.15-1.44,0,0c-.74,1.1-2.26,1.64-4.55,1.64-3.37,0-5.06-1.35-5.06-4.07a4.17,4.17,0,0,1,1.13-3.35c.76-.61,2.13-.92,4.1-.92,2.35,0,3.76.47,4.23,1.4h0v-1.63a4.68,4.68,0,0,0-.63-3c-.42-.45-1.34-.67-2.76-.67-2.41,0-3.61.67-3.61,2C735.91,388.83,735.92,389,735.93,389.15Zm3.15,3a5.78,5.78,0,0,0-2.93.48c-.45.31-.68,1-.68,2a2.66,2.66,0,0,0,.67,2.14,4.82,4.82,0,0,0,2.73.53q4.13,0,4.13-2.52a2.38,2.38,0,0,0-.8-2.12A6,6,0,0,0,739.08,392.15Z" transform="translate(-615.14 -370.12)"/><path class="cls-4" d="M750.45,379.68v19.1h-2v-19.1Z" transform="translate(-615.14 -370.12)"/></svg>