<svg id="Layer_1" data-name="Layer 1" xmlns="http://www.w3.org/2000/svg" viewBox="0 0 152.9 154"><defs><style>.cls-1{fill:none;stroke:#222;stroke-miterlimit:10;stroke-width:4px;}</style></defs><title>mobile-system</title><line class="cls-1" x1="69.56" y1="10.64" x2="93.68" y2="10.64"/><path class="cls-1" d="M727,431.2v18.66a9.41,9.41,0,0,1-2.76,6.66,9.61,9.61,0,0,1-3,2,9.36,9.36,0,0,1-3.67.74h-58.5a9.29,9.29,0,0,1-3.67-.74,9.42,9.42,0,0,1-5.76-8.68V426.49" transform="translate(-606.69 -307.28)"/><path class="cls-1" d="M649.63,342.07V318.7a9.43,9.43,0,0,1,5.76-8.68,9.29,9.29,0,0,1,3.67-.74h58.5a9.36,9.36,0,0,1,3.67.74A9.4,9.4,0,0,1,727,318.7v46.73" transform="translate(-606.69 -307.28)"/><circle class="cls-1" cx="81.62" cy="140.22" r="5.5"/><line class="cls-1" x1="42.94" y1="20.26" x2="120.3" y2="20.26"/><path class="cls-1" d="M756.91,390.54l-3.85-9.19-6.95,2.92a23,23,0,0,0-5.77-5.71l2.85-7L734,367.82l-2.85,7a23,23,0,0,0-8.11,0l-2.92-6.94-9.19,3.85,2.92,6.95a23,23,0,0,0-5.71,5.77l-7-2.85-3.76,9.23,7,2.85a23.27,23.27,0,0,0,0,8.11l-6.94,2.92,3.85,9.19,7-2.92A23,23,0,0,0,714,416.7l-2.85,7,9.23,3.76,2.85-7a23,23,0,0,0,8.11,0l2.92,6.94,9.19-3.85-2.92-6.95a23,23,0,0,0,5.71-5.77l7,2.85,3.76-9.23-7-2.85a22.79,22.79,0,0,0,0-8.11Z" transform="translate(-606.69 -307.28)"/><path class="cls-1" d="M740.45,392.05a14.4,14.4,0,1,1-18.86-7.7A14.41,14.41,0,0,1,740.45,392.05Z" transform="translate(-606.69 -307.28)"/><path class="cls-1" d="M682.24,404l5.31-12-9-4a30.18,30.18,0,0,0,.25-10.67l9.24-3.56-4.71-12.23L674,365.1a30,30,0,0,0-7.35-7.73l4-9.05-12-5.31-4,9.05a30.13,30.13,0,0,0-10.66-.25l-3.57-9.25-12.22,4.72,3.56,9.25a30.28,30.28,0,0,0-7.73,7.35l-9.05-4-5.31,12,9,4a30.43,30.43,0,0,0-.25,10.67l-9.24,3.57L614,402.31l9.25-3.57a30.33,30.33,0,0,0,7.35,7.74l-4,9,12,5.31,4-9a30.42,30.42,0,0,0,10.67.25l3.56,9.24L669,416.57l-3.56-9.25a30.29,30.29,0,0,0,7.73-7.35Z" transform="translate(-606.69 -307.28)"/><path class="cls-1" d="M666,389.59a18.93,18.93,0,1,1-9.64-25A18.93,18.93,0,0,1,666,389.59Z" transform="translate(-606.69 -307.28)"/><line class="cls-1" x1="42.94" y1="128.44" x2="120.3" y2="128.44"/></svg>